<?xml version="1.0" encoding="UTF-8"?>
<svg width="24px" height="24px" viewBox="0 0 24 24" version="1.1" xmlns="http://www.w3.org/2000/svg" xmlns:xlink="http://www.w3.org/1999/xlink">
    <!-- Generator: Sketch 49.3 (51167) - http://www.bohemiancoding.com/sketch -->
    <title>ic_cart</title>
    <desc>Created with Sketch.</desc>
    <defs></defs>
    <g id="Anti-Money" stroke="none" stroke-width="1" fill="none" fill-rule="evenodd">
        <g id="Group-11">
            <rect id="Rectangle-15" x="0" y="0" width="24" height="24"></rect>
            <path d="M1.77422855,2.48780488 C1.60969142,2.48780488 1.5,2.43360434 1.5,2.27100271 C1.5,2.10840108 1.60969142,2 1.77422855,2 L4.07774833,2 C4.92785682,2 5.6682739,2.56910569 5.83281103,3.38211382 L7.91694797,14.195122 C7.94437083,14.1680217 7.97179368,14.1680217 7.99921654,14.1680217 L19.9007354,14.1680217 C19.9281583,14.1680217 19.9555811,14.1409214 19.9555811,14.1138211 L21.9848724,6.09214092 C22.0122952,6.06504065 21.9848724,6.03794038 21.9848724,6.03794038 C21.9574495,6.01084011 21.9574495,6.01084011 21.9300267,6.01084011 L7.88952512,6.01084011 C7.72498799,6.01084011 7.61529657,5.90243902 7.61529657,5.7398374 C7.61529657,5.57723577 7.72498799,5.46883469 7.88952512,5.46883469 L21.9026038,5.46883469 C22.0671409,5.46883469 22.2591009,5.5501355 22.3687923,5.68563686 C22.4784838,5.82113821 22.5333295,6.01084011 22.4784838,6.20054201 L20.4491925,14.2222222 C20.3943468,14.4932249 20.1475411,14.6829268 19.8733126,14.6829268 L8.02663939,14.6829268 L8.41055936,16.6070461 C8.52025078,17.0677507 8.93159359,17.3929539 9.39778212,17.3929539 L20.1475411,17.3929539 C20.3120782,17.3929539 20.4217697,17.501355 20.4217697,17.6639566 C20.4217697,17.8265583 20.3120782,17.9349593 20.1475411,17.9349593 L9.37035927,17.9349593 C8.65736505,17.9349593 8.02663939,17.4200542 7.86210227,16.7154472 L5.31177679,3.43631436 C5.20208537,2.89430894 4.68105113,2.48780488 4.10517119,2.48780488 L1.77422855,2.48780488 Z M12.4691418,20.5094851 C12.4691418,21.3224932 11.7835705,22 10.9608848,22 C10.1381992,22 9.45262783,21.3224932 9.45262783,20.5094851 C9.45262783,19.696477 10.1381992,19.0189702 10.9608848,19.0189702 C11.7835705,19.0189702 12.4691418,19.696477 12.4691418,20.5094851 Z M10.0010849,20.5094851 C10.0010849,21.0243902 10.4398506,21.4579946 10.9608848,21.4579946 C11.4819191,21.4579946 11.9206847,21.0243902 11.9206847,20.5094851 C11.9206847,19.9945799 11.4819191,19.5609756 10.9608848,19.5609756 C10.4398506,19.5609756 10.0010849,19.9945799 10.0010849,20.5094851 Z M19.0506269,20.5094851 C19.0506269,21.3224932 18.3650556,22 17.5423699,22 C16.7196843,22 16.0341129,21.3224932 16.0341129,20.5094851 C16.0341129,19.696477 16.7196843,19.0189702 17.5423699,19.0189702 C18.3650556,19.0189702 19.0506269,19.696477 19.0506269,20.5094851 Z M16.58257,20.5094851 C16.58257,21.0243902 17.0213357,21.4579946 17.5423699,21.4579946 C18.0634042,21.4579946 18.5021698,21.0243902 18.5021698,20.5094851 C18.5021698,19.9945799 18.0634042,19.5609756 17.5423699,19.5609756 C17.0213357,19.5609756 16.58257,19.9945799 16.58257,20.5094851 Z M11.0979991,11.9728997 C11.0979991,12.1355014 10.9883077,12.2439024 10.8237706,12.2439024 C10.6592334,12.2439024 10.549542,12.1355014 10.549542,11.9728997 L10.549542,8.17886179 C10.549542,8.01626016 10.6592334,7.90785908 10.8237706,7.90785908 C10.9883077,7.90785908 11.0979991,8.01626016 11.0979991,8.17886179 L11.0979991,11.9728997 Z M14.3887417,11.9728997 C14.3887417,12.1355014 14.2790502,12.2439024 14.1145131,12.2439024 C13.949976,12.2439024 13.8402846,12.1355014 13.8402846,11.9728997 L13.8402846,8.17886179 C13.8402846,8.01626016 13.949976,7.90785908 14.1145131,7.90785908 C14.2790502,7.90785908 14.3887417,8.01626016 14.3887417,8.17886179 L14.3887417,11.9728997 Z M17.6794842,11.9728997 C17.6794842,12.1355014 17.5697928,12.2439024 17.4052557,12.2439024 C17.2407185,12.2439024 17.1310271,12.1355014 17.1310271,11.9728997 L17.1310271,8.17886179 C17.1310271,8.01626016 17.2407185,7.90785908 17.4052557,7.90785908 C17.5697928,7.90785908 17.6794842,8.01626016 17.6794842,8.17886179 L17.6794842,11.9728997 Z" id="Combined-Shape" fill="#000000" fill-rule="nonzero"></path>
        </g>
    </g>
</svg>